<?xml version="1.0" encoding="utf-8"?>
<!-- Generator: Adobe Illustrator 22.0.0, SVG Export Plug-In . SVG Version: 6.00 Build 0)  -->
<svg version="1.1" id="Слой_1" xmlns="http://www.w3.org/2000/svg" xmlns:xlink="http://www.w3.org/1999/xlink" x="0px" y="0px"
	 viewBox="0 0 1885 1133.9" style="enable-background:new 0 0 1885 1133.9;" xml:space="preserve">
<style type="text/css">
	.st0{fill:url(#SVGID_1_);}
	.st1{fill:url(#SVGID_2_);}
	.st2{opacity:0.73;fill:#B3DAF4;enable-background:new    ;}
	.st3{fill:url(#SVGID_3_);}
	.st4{fill:url(#SVGID_4_);}
	.st5{fill:url(#SVGID_5_);}
	.st6{fill:#BDD0FB;}
	.st7{fill:#91B3FA;}
	.st8{fill:#7D97F4;}
	.st9{fill:url(#SVGID_6_);}
	.st10{fill:url(#SVGID_7_);}
	.st11{fill:url(#SVGID_8_);}
	.st12{fill:url(#SVGID_9_);}
	.st13{fill:url(#SVGID_10_);}
	.st14{fill:url(#SVGID_11_);}
	.st15{fill:url(#SVGID_12_);}
	.st16{fill:url(#SVGID_13_);}
	.st17{fill:url(#SVGID_14_);}
	.st18{fill:url(#SVGID_15_);}
	.st19{fill:url(#SVGID_16_);}
	.st20{fill:#4080F2;}
	.st21{fill:url(#SVGID_17_);}
	.st22{fill:url(#SVGID_18_);}
	.st23{fill:url(#SVGID_19_);}
	.st24{fill:url(#SVGID_20_);}
	.st25{fill:url(#SVGID_21_);}
	.st26{fill:url(#SVGID_22_);}
	.st27{fill:url(#SVGID_23_);}
	.st28{fill:url(#SVGID_24_);}
	.st29{fill:url(#SVGID_25_);}
	.st30{fill:url(#SVGID_26_);}
	.st31{fill:url(#SVGID_27_);}
	.st32{fill:url(#SVGID_28_);}
	.st33{fill:url(#SVGID_29_);}
	.st34{fill:url(#SVGID_30_);}
	.st35{fill:url(#SVGID_31_);}
	.st36{fill:url(#SVGID_32_);}
	.st37{fill:url(#SVGID_33_);}
	.st38{fill:url(#SVGID_34_);}
	.st39{fill:url(#SVGID_35_);}
	.st40{fill:url(#SVGID_36_);}
	.st41{fill:url(#SVGID_37_);}
	.st42{fill:url(#SVGID_38_);}
	.st43{fill:url(#SVGID_39_);}
	.st44{fill:url(#SVGID_40_);}
	.st45{fill:url(#SVGID_41_);}
	.st46{fill:url(#SVGID_42_);}
	.st47{fill:url(#SVGID_43_);}
	.st48{fill:url(#SVGID_44_);}
	.st49{fill:url(#SVGID_45_);}
	.st50{fill:url(#SVGID_46_);}
	.st51{fill:url(#SVGID_47_);}
	.st52{fill:url(#SVGID_48_);}
	.st53{opacity:0.87;fill:url(#SVGID_49_);enable-background:new    ;}
	.st54{fill:url(#SVGID_50_);}
</style>
<title>cars</title>
<linearGradient id="SVGID_1_" gradientUnits="userSpaceOnUse" x1="6149.4175" y1="1792.9231" x2="6093.9272" y2="1629.4232" gradientTransform="matrix(-1 0 0 -1 6270.1289 2858.5996)">
	<stop  offset="0" style="stop-color:#09005D"/>
	<stop  offset="1" style="stop-color:#1A0F91"/>
</linearGradient>
<path class="st0" d="M153.4,1095.8l-2.2,18.3c-0.4,3.5-3.2,6.2-6.6,6.6c-8.1,1-16.4,1.1-24.5,0.4c-3.6-0.4-6.1-3.6-5.7-7.2
	c0-0.4,0.1-0.8,0.3-1.2c2.3-7.1,6.4-17.7,12.3-24h20.4c3.5,0,6.2,2.9,6.2,6.3C153.4,1095.3,153.4,1095.6,153.4,1095.8z"/>
<g>
	
		<linearGradient id="SVGID_2_" gradientUnits="userSpaceOnUse" x1="6066.5713" y1="1635.6917" x2="6110.4307" y2="2148.2546" gradientTransform="matrix(-1 0 0 -1 6270.1289 2858.5996)">
		<stop  offset="0" style="stop-color:#FF928E"/>
		<stop  offset="1" style="stop-color:#FEB3B1"/>
	</linearGradient>
	<path class="st1" d="M238.6,928c0,0-58.9,99.7-68.3,122.5c-9.4,22.8-12.7,41.7-12.8,43.5c-0.2,2.8-4.1,5.5-14.9,5.5
		c-5.6,0-8.3-2-9.6-3.9c-1.1-1.6-1.2-3.7-0.3-5.5c3.4-6.2,14.3-25.8,18.2-34.7c4.8-10.6,15-58.9,20.7-75.7s12-34.9,36.5-51.7
		C208.3,928,225.2,913.3,238.6,928z"/>
	<path class="st2" d="M529.5,1025.5c243.1,22,261.8-56.5,521.4-27.8c161.8,17.9,202.2,53.7,373.5,53.2c114.4-0.3,226.6-2,326.8-69.4
		c80.8-54.4,165.5-141.2,124.2-236.6c-24.6-56.9-84.4-98.3-99.1-159c-12.8-52.7,9.4-107,26.2-156.9c30.4-89.7,82.7-220,1-301.7
		C1699,23,1567.1,147.1,1476,200.5C1263.7,325,1094.2,158.9,911.4,80.2C783.8,25.1,624.6-11.5,482.5,6.7
		C323.8,27,323,114.8,353.7,231.2c11.4,43.4,31.6,99.3,14.5,143.6c-28.3,73.5-111.4,57.6-179.1,75.8c-38.5,10.4-75.9,24.4-106.7,48
		c-64.6,49.1-87.1,125.6-79.9,199C25.9,936.7,305.7,1005.2,529.5,1025.5z"/>
	
		<linearGradient id="SVGID_3_" gradientUnits="userSpaceOnUse" x1="1093.8213" y1="2116.6785" x2="1122.7683" y2="1258.962" gradientTransform="matrix(1 0 0 -1 -127.32 2858.5996)">
		<stop  offset="0" style="stop-color:#4042E2"/>
		<stop  offset="1" style="stop-color:#4F52FF"/>
	</linearGradient>
	<path class="st3" d="M444.5,947.2h1057.4c2,0,3.8-1.6,4.4-3.4s-0.3-3.7-2-4.8c-25.1-14-50.2-27.8-75.3-41.7
		c-0.8-0.3-1.6-0.5-2.4-0.4H519.8c-0.8-0.1-1.7,0-2.4,0.3c-25.2,14-50.2,27.8-75.3,41.8c-1.7,1.1-2.5,3-1.9,4.9
		C440.7,945.8,442.4,947,444.5,947.2z"/>
	
		<linearGradient id="SVGID_4_" gradientUnits="userSpaceOnUse" x1="1090.3484" y1="2123.3059" x2="1119.5469" y2="1258.172" gradientTransform="matrix(1 0 0 -1 -127.32 2858.5996)">
		<stop  offset="0" style="stop-color:#4042E2"/>
		<stop  offset="1" style="stop-color:#4F52FF"/>
	</linearGradient>
	<path class="st4" d="M275.4,1042.4H1671c2,0,3.8-2.1,4.4-3.8c0.5-1.9-0.3-3.9-2-5c-25.1-14-50.2-27.4-75.3-41.3
		c-0.7-0.4-1.6,0-2.4,0h-1245c-0.9,0-1.7-0.6-2.4-0.2c-25.1,14-50.2,27.5-75.3,41.5c-1.7,0.9-2.5,3.5-2,5.3
		C271.5,1040.6,273.4,1042.4,275.4,1042.4z"/>
	
		<linearGradient id="SVGID_5_" gradientUnits="userSpaceOnUse" x1="1086.8666" y1="2130.676" x2="1116.2596" y2="1260.0405" gradientTransform="matrix(1 0 0 -1 -127.32 2858.5996)">
		<stop  offset="0" style="stop-color:#4042E2"/>
		<stop  offset="1" style="stop-color:#4F52FF"/>
	</linearGradient>
	<path class="st5" d="M1842.5,1127.3c-25.1-14-50.2-27.5-75.3-41.4c-0.7-0.4-1.6-0.2-2.4-0.2H181.6c-0.9,0-1.7-0.2-2.4,0.2
		c-25.1,14-50.2,27.7-75.3,41.7c-1.7,1.2-2.5,3.1-2,5c0.5,1.7,2.4,3.4,4.4,3.4H1840c2,0,3.8-1.8,4.4-3.5
		C1844.8,1130.6,1844.2,1128.2,1842.5,1127.3z"/>
	<path class="st6" d="M747.5,805.2c5.3-11.5,8.6-23.6,14.8-34.9c13.2-23.8,32.7-41.9,51.7-61.8c13-13.7,35.2-37.8,17-55.2
		c-9-8.5-23.6-9.6-35.7-8.3c-36.5,3.9-49.8,11.8-41.7-26.9c4.5-21.5,17.3-40.8,22.4-62c5.1-21.4,7.5-83.5-18-98.2
		c-45.4-26.1-73.8,72.4-80.8,94.9c-0.3,0.9-0.4,1.8-0.5,2.7c-0.3,3.2-3.6,5.5-7.2,5.2c-2.3-0.2-4.3-1.5-5.2-3.4
		c-1.7-3.4-3.1-6.6-3.2-9.2c-0.7-13.1,3.8-27.5,7.6-40c5.2-16.9,12.3-33.5,19.8-49.7c8.6-18.4,13.6-37.7,6.2-57
		c-7.3-19-22.3-34.9-35.7-50.7c-17.7-20.9-30.2-49.5-58-61.7c-32.9-14.4-65.7,7.5-83.4,31.7c-28.5,39.4-12.6,82.7,9,121.1
		c15.3,27.2,54.1,68.6,53.2,101.9c-0.1,3.3-3.1,5.8-6.7,5.7c-1,0-1.9-0.2-2.8-0.6c-6.7-3.1-12.2-8.5-17.8-14.1
		c-20.1-19.9-37.5-42.2-55.5-63.6c-12.4-14.7-29.7-40.8-52.7-42.6c-26.9-2.2-26.5,43.5-24.4,57.7c10.9,72.7,86.5,108.9,126.4,167.2
		c8.2,12,26.1,33.9,24.2,48.5c-3.6,28.1-42.2-3-59-7.6c-23.3-6.5-64.3-6.6-64.5,22c-0.3,33.2,31.7,61.8,65.3,71.8
		c26.8,8,57.5,10.8,83,21.9c23.3,10.2,9.4,33.2-14,26.8c-9.6-2.7-19.2-6.1-28.7-9.4c-9.1-3.2-35.9-16.3-42.6-4.1
		c-5.1,9.3,5.5,25.6,9.7,33.5c47,89,85.9,72.6,140.2,90c15.6,5,26.2,16.3,31.8,30c2.4,5.9,2.2,27.9,9.7,30
		c10.3,2.7,24.8-16.5,29.3-22c8.2-10.1,18.2-19,26.4-29.3c14.2-17.6,37.4-43.5,34.8-66.8c-1.3-11.5-12.4-16.1-24.4-17
		c-20.3-1.4-52.5-4.8-39.5-29.8C734.4,829.8,741.7,817.8,747.5,805.2z"/>
	<path class="st7" d="M706.4,1006.1c-1.6,0-2.8-1.1-2.8-2.5c0-1.2-2.9-121.8-32.8-202.8c-29.8-80.5-50.4-238.1-45.1-280.3
		c4.6-36.9-11.8-191.5-47.6-226.7c-4.7-4.6-9.4-6.9-14.3-6.9c-1.6,0-2.9-1.1-2.9-2.5s1.2-2.6,2.8-2.6c6.6-0.1,12.8,2.8,18.6,8.5
		c39.2,38.5,53.2,197.8,49,230.7c-4.7,37.5,13.4,193.2,44.9,278.2c30.2,81.7,33,203,33,204.3C709.2,1005,707.9,1006.1,706.4,1006.1
		L706.4,1006.1z"/>
	<path class="st6" d="M613.1,855.7c-12.8,3.1-53.8,33.5-51.8,7.6c2.4-33.2,43-59.7,46.1-93.7c1.7-19.8-19-31.7-39.1-35.2
		c-35.2-6.2-47.6,55.9-65.2,76.9c-3.7,4.4-7.7-81.7-8.5-85.3c-2.4-10.3-8.4-29.1-20.5-33.8c-29.2-11.4-40.5,22.4-43.8,41.9
		c-0.3,1.6-1.9,2.7-3.8,2.5c-0.8-0.1-1.5-0.5-2-1c-18.6-19.9-4.4-40.9-14.9-63.9c-14.5-31.7-44.7,0.7-56.9,15.8
		c-21,25.9-24.8,60.8,8,81c30.2,18.6,45.1,30.6,25.3,35.4c-26,6.4-46.8,31.1-33.7,54.7c13.6,24.6,55.7,37.5,82.7,46.3
		c10.7,3.4,38.5,3.2,40.7,16.4c1.8,11.1-16.9,16-25.4,19.9c-31.8,14.7-38.9,29.8-3.8,49c70.8,38.8,149,27.8,148.2-1.4
		c-0.3-13.8,10.1-30.6,15-43.1c5.2-13.5,10.4-27.1,14.5-40.9C628.4,890.8,643,848.5,613.1,855.7z"/>
	<path class="st8" d="M587.3,1005.7c-1.1,0-2.2-0.7-2.6-1.6c-0.6-1.4-57.4-137-115.6-177c-45.7-31.4-80.3-80-84.3-118.3
		c-2-19.4,3.4-35.6,16.1-48.3c1.1-1,2.9-1,4,0c1,0.9,1.1,2.4,0.2,3.4c-11.6,11.5-16.5,26.5-14.7,44.4c3.8,37,37.6,84.2,82.1,114.8
		c25,17.2,52.4,52.6,81.4,105.3c21.5,39.1,35.9,73.6,36,73.9c0.5,1.3-0.2,2.7-1.7,3.3l0,0C588,1005.7,587.6,1005.7,587.3,1005.7z"/>
	<path class="st6" d="M1228.1,920.8c-37.3-18.7-73.4-48.7-102.7-77.4c-12-11.8-32.3-30.4-33.6-48.2c-1.6-23,46.9-20.5,62.7-17.6
		c12.2,2.3,26.4,11.5,39,9.3c29.7-5.1-4.5-38.8-12.9-46.2c-15.8-13.7-37.4-27.6-46.8-46.6c-4.3-8.7-4.7-17.4,2.4-24.9
		c22.3-23.2,49.5-6.4,68.9,8.7c12.9,10.1,36.4,12.5,20.9-8.3c-14.3-19.3-36.1-33.5-51.8-52c-7.3-8.7-20.5-19.1-21.7-30.8
		c-1.6-15.1,13.9-19.9,27-16.9c16.9,3.7,28.7,15.1,40.1,26.7c12.3,12.6,36.1,22.9,32.1-3.8c-2.4-16.2-10.1-30.7-15.7-45.9
		c-4.7-12.6-34.8-82.1,8-65.6c10.1,3.9,17,14,25.8,19.9c18.2,12.1,16.5-6.6,12.9-18.6c-5.8-19-29.6-42.4-16.7-63.6
		c12.4-20.2,48-11.5,66.5-6c24.3,7.2,49.9,17.6,47.8,46.5c-1.9,25.6-22.8,47.7-32.4,70.9c-5.9,14-19.4,57,4.4,61.8
		c21.1,4.2,35.3-19.6,50-28.9c25.5-16.1,43.9,10.8,46.9,31.5c3.7,24.7-7.4,44.8-23.9,63c-10.6,11.8-24,20.7-35.8,31.3
		c-7.1,6.3-36.3,37.1-10.5,37.8c20.3,0.5,28.9-24.7,47.5-27.8c27-4.5,26.3,29.9,16.2,43.5c-11.8,15.9-31.7,24.9-48,35.9
		c-20.1,13.6-43.3,28.2-55.8,49c-15.8,26.2,25.9,5.8,34.2,0.9c13.6-8.1,37.9-25.2,54.3-13.7c20.4,14.4-7.8,52.4-17.9,64.6
		c-26.5,31.7-66.7,53.4-109.2,56.7C1273.1,938,1249.6,931.6,1228.1,920.8z"/>
	<path class="st7" d="M1284.4,942.6c-1.3,0-2.4-0.7-3-1.8c-0.3-0.8-33.9-81.9-14.2-182.1c1.8-9.4,3.9-20,6.3-31.6
		c11.2-56.1,26.5-132.9,36.5-197.3c5.5-35.1,8.8-62.9,9.9-82.5c1.7-31.4-2.6-35.2-3.5-35.6c-1.6-0.7-2.2-2.3-1.4-3.7s2.6-2,4.2-1.2
		c0.1,0,0.2,0.1,0.3,0.2c7.4,3.7,12.9,21.2-3.1,123.9c-10.1,64.4-25.4,141.3-36.5,197.5c-2.3,11.5-4.5,22.2-6.3,31.6
		c-19.4,98.8,13.6,178.4,13.9,179.2c0.6,1.5-0.2,3-1.8,3.6l0,0C1285.2,942.5,1284.8,942.6,1284.4,942.6z"/>
	<path class="st6" d="M1366.6,987.1c-2.6-12.5-15.6-25.7-22.6-36.3c-7.6-11.2-15.1-22.5-21.7-34.2c-6.7-11.9-28.8-47.4-0.3-45.9
		c12.1,0.6,55.4,21.1,48.3-1.9c-9.3-29.4-51.3-46.3-61.2-76.4c-5.8-17.6,10.3-31.7,27.6-38.2c30.4-11.5,54.6,42.3,74.9,58.1
		c4.3,3.4-10.4-74.8-10.4-78.1c0-9.7,1.3-27.5,11.2-33.9c26.5-16.9,44.9,20.4,50.3,35.6c18.8-23.4-1.7-40.6,3.2-64.8
		c6.3-30.9,40.3-6.9,54.5,4.6c24.3,19.7,35.1,50.4,10,74.1c-23.2,21.8-34.1,35-15.2,36.1c24.7,1.3,48.6,20.1,41.9,43.4
		c-7.1,24.4-42.1,43.1-64.5,55.5c-8.8,4.9-33.9,9.4-33,21.6c0.7,10.2,18.5,11.5,26.9,13.7c31.7,7.9,41.3,20.2,13.8,43.4
		C1444.6,1010.1,1372.1,1013.5,1366.6,987.1z"/>
	<path class="st8" d="M1376.3,1001.6c-0.2,0-0.3,0-0.4,0c-1.7-0.2-2.9-1.6-2.6-3.2c0.9-5.5,22.8-134.2,67.7-181.1
		c33.5-34.9,53.8-82.9,49.3-116.7c-2.1-16.3-9.6-28.8-22.4-37.1c-1.5-0.9-1.8-2.6-0.9-3.9s2.9-1.6,4.4-0.8c0.1,0.1,0.2,0.1,0.3,0.2
		c14.3,9.3,22.6,23.1,24.9,41c4.6,35.2-16.3,84.9-50.8,121c-43.7,45.6-66,177-66.3,178.3C1379.2,1000.6,1377.9,1001.6,1376.3,1001.6
		z"/>
	
		<linearGradient id="SVGID_6_" gradientUnits="userSpaceOnUse" x1="641.2379" y1="2162.4656" x2="647.09" y2="1945.9541" gradientTransform="matrix(1 0 0 -1 0 2921.9595)">
		<stop  offset="0" style="stop-color:#09005D"/>
		<stop  offset="1" style="stop-color:#1A0F91"/>
	</linearGradient>
	<path class="st9" d="M638.6,921.2h19.1c25.3,0,45.7,18.3,45.7,40.8v108.8c0,22.5-20.5,40.8-45.7,40.8h-19.1
		c-25.3,0-45.7-18.3-45.7-40.8V962C592.9,939.4,613.3,921.2,638.6,921.2z"/>
	
		<linearGradient id="SVGID_7_" gradientUnits="userSpaceOnUse" x1="1269.6284" y1="2177.6272" x2="1275.4805" y2="1961.1082" gradientTransform="matrix(1 0 0 -1 0 2921.9595)">
		<stop  offset="0" style="stop-color:#09005D"/>
		<stop  offset="1" style="stop-color:#1A0F91"/>
	</linearGradient>
	<path class="st10" d="M1267.4,921.2h19.1c25.3,0,45.7,18.3,45.7,40.8v108.8c0,22.5-20.5,40.8-45.7,40.8h-19.1
		c-25.3,0-45.7-18.3-45.7-40.8V962C1221.7,939.4,1242.1,921.2,1267.4,921.2z"/>
	
		<linearGradient id="SVGID_8_" gradientUnits="userSpaceOnUse" x1="833.2474" y1="2630.1116" x2="783.6899" y2="2302.1101" gradientTransform="matrix(1 0 0 -1 -127.32 2858.5996)">
		<stop  offset="0" style="stop-color:#E1473D"/>
		<stop  offset="1" style="stop-color:#E9605A"/>
	</linearGradient>
	<path class="st11" d="M652.1,758.1c-1.4-0.2-2.9-1.3-2.9-2.6v-8.4c0-8.1-4.5-15.4-12.6-19.1c-10.3-4.7-22.6-4.8-33-0.5l-19.1,8.1
		c-9.3,3.9-14.9,12.2-14.9,21.3v6.4c-0.1,11.7,9.5,21.7,22.6,23.3l80,9.8l9.5-32.5L652.1,758.1z"/>
	
		<linearGradient id="SVGID_9_" gradientUnits="userSpaceOnUse" x1="6819.7456" y1="2542.8201" x2="6770.1865" y2="2214.7563" gradientTransform="matrix(-1 0 0 -1 8055.9287 2858.5996)">
		<stop  offset="0" style="stop-color:#E1473D"/>
		<stop  offset="1" style="stop-color:#E9605A"/>
	</linearGradient>
	<path class="st12" d="M1276.1,758.1c1.4-0.2,1.7-1.3,1.7-2.6v-8.4c0-8.1,5.7-15.4,13.8-19.1c10.6-4.7,22.9-4.8,33.6-0.5l19.2,8.1
		c9.2,3.9,15,12.2,15,21.3v6.4c0,11.8-9.4,21.7-22.4,23.3l-79.9,9.8l-10.1-32.5L1276.1,758.1z"/>
	
		<linearGradient id="SVGID_10_" gradientUnits="userSpaceOnUse" x1="1092.5887" y1="2127.8931" x2="1087.8098" y2="1549.5419" gradientTransform="matrix(1 0 0 -1 -127.32 2858.5996)">
		<stop  offset="0" style="stop-color:#FE7062"/>
		<stop  offset="1" style="stop-color:#FF928E"/>
	</linearGradient>
	<path class="st13" d="M1335.2,830.1c-11.6-34.9-71.5-67.3-71.5-67.3s-50.2-137.7-104.4-137.7H769.2
		c-54.1,0-104.4,137.7-104.4,137.7s-59.9,32.4-71.5,67.2c-8.5,25.5,9.9,123.5,20.4,174.2c3.7,17.9,22.6,31.3,44.7,31.3h611.8
		c22,0,40.9-13.4,44.7-31.2C1325.3,953.6,1343.7,855.6,1335.2,830.1z"/>
	
		<linearGradient id="SVGID_11_" gradientUnits="userSpaceOnUse" x1="1088.9812" y1="2199.7463" x2="1094.2184" y2="1558.4752" gradientTransform="matrix(1 0 0 -1 -127.32 2858.5996)">
		<stop  offset="0" style="stop-color:#E1473D"/>
		<stop  offset="1" style="stop-color:#E9605A"/>
	</linearGradient>
	<path class="st14" d="M1327.7,977c-3.6-3.6-8.7-5.6-14-5.6H614.8c-5.3,0-10.3,2-13.9,5.5c-3.3,3.3-4.6,7.9-3.4,12.2l11.5,40.5
		c1.8,6.6,9,11.1,17.3,11.1h675.5c8.2,0,15.4-4.4,17.3-10.9l12-40.6C1332.3,984.8,1331,980.3,1327.7,977z"/>
	
		<linearGradient id="SVGID_12_" gradientUnits="userSpaceOnUse" x1="842.194" y1="2424.5408" x2="835.1982" y2="2254.2922" gradientTransform="matrix(1 0 0 -1 -127.32 2858.5996)">
		<stop  offset="0" style="stop-color:#FF928E"/>
		<stop  offset="1" style="stop-color:#FEB3B1"/>
	</linearGradient>
	<path class="st15" d="M775.5,913.8c0,0-17.4-46.6-39.3-50.5s-114.7-21.3-116.6-6.9c-1.9,14.4-20.6,63.8,34.8,68.4
		S784.4,933.1,775.5,913.8z"/>
	
		<linearGradient id="SVGID_13_" gradientUnits="userSpaceOnUse" x1="6916.04" y1="2398.1584" x2="6909.0444" y2="2227.9021" gradientTransform="matrix(-1 0 0 -1 8130.9092 2858.5996)">
		<stop  offset="0" style="stop-color:#FF928E"/>
		<stop  offset="1" style="stop-color:#FEB3B1"/>
	</linearGradient>
	<path class="st16" d="M1153.1,913.8c0,0,17.4-46.6,39.3-50.5s114.7-21.3,116.6-6.9s20.6,63.8-34.8,68.4S1144.1,933.1,1153.1,913.8z
		"/>
	
		<linearGradient id="SVGID_14_" gradientUnits="userSpaceOnUse" x1="1093.3004" y1="1918.3534" x2="1103.8126" y2="1529.4507" gradientTransform="matrix(1 0 0 -1 -127.32 2858.5996)">
		<stop  offset="0" style="stop-color:#E1473D"/>
		<stop  offset="1" style="stop-color:#E9605A"/>
	</linearGradient>
	<path class="st17" d="M1140.6,873.7c-1.8-2.5-4.9-4.4-8.2-4.4H796.2c-3.4,0-6.6,2.1-8.4,4.7c-1.7,2.7-1.8,6-0.3,8.8l18.9,32.4
		c7,11.8,20.8,19.8,35.8,19.8h247c16,0,30.4-8.9,37-21.9l15-30.7C1142.6,879.6,1142.4,876.3,1140.6,873.7z"/>
	<path class="st8" d="M1232.1,774.2c-2.2,3-5.9,4.9-9.9,5H706.4c-6.7-0.2-12-5.1-11.8-11.1c0.1-1.5,0.4-3,1.1-4.3
		c11.7-22,33.7-62.9,46-85.6c0.5-1,1.1-2,1.8-3c6-8.5,16.5-13.7,27.8-13.7h390.1c11.4,0,21.9,5.2,27.9,13.9c0.9,1.2,1.6,2.5,2.2,3.8
		l41.5,85C1234.7,767.4,1234.3,771.2,1232.1,774.2z"/>
	<path class="st6" d="M1189.3,675.3c-27.4,4.8-107.6,16.8-228.7,16.8c-122.1,0-193.8-12.2-217-17c6-8.5,16.5-13.7,27.8-13.7h390.1
		C1172.8,661.4,1183.3,666.7,1189.3,675.3z"/>
	
		<linearGradient id="SVGID_15_" gradientUnits="userSpaceOnUse" x1="825.7754" y1="2038.1173" x2="896.5044" y2="2038.1173" gradientTransform="matrix(1 0 0 -1 -127.32 2858.5996)">
		<stop  offset="0" style="stop-color:#FF928E"/>
		<stop  offset="1" style="stop-color:#FEB3B1"/>
	</linearGradient>
	<path class="st18" d="M767.2,850.5c-0.5,0-1-0.2-1.3-0.5L699,793.5c-0.9-0.5-1-1.6-0.3-2.4c0.6-0.8,1.8-0.9,2.7-0.3
		c0.1,0.1,0.2,0.2,0.3,0.2l66.9,56.5c0.8,0.6,0.8,1.7,0.1,2.4C768.3,850.3,767.7,850.5,767.2,850.5L767.2,850.5z"/>
	
		<linearGradient id="SVGID_16_" gradientUnits="userSpaceOnUse" x1="1281.8525" y1="2037.8965" x2="1352.5817" y2="2037.8965" gradientTransform="matrix(1 0 0 -1 -127.32 2858.5996)">
		<stop  offset="0" style="stop-color:#FF928E"/>
		<stop  offset="1" style="stop-color:#FEB3B1"/>
	</linearGradient>
	<path class="st19" d="M1156.4,850.5c-1,0-1.9-0.8-1.9-1.7c0-0.5,0.2-0.9,0.6-1.2l66.9-56.4c0.9-0.5,2.1-0.5,2.7,0.3
		c0.5,0.6,0.5,1.6-0.1,2.2l-66.9,56.5C1157.4,850.4,1157,850.5,1156.4,850.5z"/>
	<path class="st7" d="M1096.4,531.7c-0.3,0-0.5-0.1-0.8-0.2c-0.6-0.4-0.8-1.1-0.3-1.6l0,0c1.2-1.6,2.4-3.3,3.7-5
		c0.3-0.5,1.2-0.7,1.8-0.4s0.8,1.1,0.4,1.6c-1.2,1.7-2.4,3.4-3.7,5.1C1097.2,531.5,1096.8,531.7,1096.4,531.7z"/>
	<path class="st7" d="M973,589.8c-4.2,0-8.4-0.2-12.5-0.5c-0.7-0.1-1.3-0.6-1.2-1.2l0,0c0.1-0.6,0.7-1.2,1.5-1.1
		c4.1,0.3,8.2,0.5,12.2,0.5h0.8c0.8,0,1.3,0.5,1.3,1.2s-0.6,1.2-1.3,1.2l0,0H973V589.8z M986.8,589.3c-0.7,0-1.4-0.5-1.4-1.2
		c0-0.6,0.5-1.2,1.3-1.2c4.3-0.4,8.7-0.9,12.9-1.6c0.7,0,1.4,0.5,1.4,1.2c0,0.5-0.3,1-1,1.2c-4.4,0.7-8.7,1.2-13.1,1.6H986.8z
		 M947.6,588c-0.1,0-0.2,0-0.3,0c-4.4-0.6-8.7-1.5-12.9-2.5c-0.7-0.2-1.1-0.9-1-1.5c0.2-0.6,1-1,1.7-0.9c4.2,1,8.5,1.8,12.7,2.5
		c0.7,0.2,1.2,0.8,1,1.4C948.7,587.5,948.2,587.9,947.6,588L947.6,588z M1012.7,585.1c-0.7,0-1.3-0.6-1.3-1.2c0-0.5,0.3-0.9,1-1.1
		c4.2-1,8.3-2.2,12.4-3.6c0.7-0.2,1.5,0.2,1.7,0.8s-0.1,1.2-0.8,1.5c-4.1,1.4-8.4,2.6-12.6,3.7
		C1012.9,585.1,1012.8,585.1,1012.7,585.1L1012.7,585.1z M922.2,582c-0.2,0-0.3,0-0.4-0.1c-4.1-1.3-8.3-2.8-12.2-4.4
		c-0.7-0.3-1-1-0.7-1.6s1.1-0.9,1.7-0.6c3.9,1.6,8,3.1,12.1,4.4c0.7,0.2,1.1,0.9,1,1.5C923.4,581.6,922.8,582,922.2,582L922.2,582z
		 M1037.3,576.9c-0.8,0-1.3-0.5-1.3-1.2c0-0.5,0.3-0.9,0.8-1.1c3.9-1.6,7.8-3.5,11.5-5.5c0.6-0.3,1.5-0.2,1.8,0.4s0.2,1.3-0.4,1.6
		c-3.8,2-7.7,3.9-11.7,5.5C1037.6,576.9,1037.4,576.9,1037.3,576.9L1037.3,576.9z M898.4,572.2c-0.3,0-0.4-0.1-0.7-0.2
		c-3.8-2-7.6-4.1-11.2-6.3c-0.6-0.4-0.8-1.1-0.3-1.6l0,0c0.4-0.5,1.2-0.7,1.8-0.3c3.5,2.2,7.3,4.3,11,6.2c0.6,0.3,0.9,1.1,0.5,1.6
		C899.3,572,898.9,572.2,898.4,572.2L898.4,572.2z M1059.8,565c-0.8,0-1.3-0.5-1.3-1.2c0-0.4,0.2-0.8,0.5-0.9c1.7-1.1,3.3-2.2,5-3.4
		c1.8-1.2,3.6-2.6,5.2-3.8c0.6-0.4,1.4-0.3,1.9,0.2c0.4,0.5,0.3,1.2-0.2,1.6c-1.7,1.3-3.5,2.7-5.3,3.9c-1.7,1.2-3.3,2.3-5.1,3.4
		C1060.3,564.9,1060.1,565,1059.8,565L1059.8,565z M876.9,558.8c-0.3,0-0.6-0.1-0.9-0.3c-3.3-2.5-6.6-5.2-9.8-8
		c-0.5-0.5-0.4-1.2,0.1-1.7c0.5-0.4,1.3-0.4,1.8,0c3.1,2.7,6.3,5.4,9.6,7.9c0.5,0.4,0.6,1.2,0.2,1.7l0,0
		C877.7,558.6,877.3,558.8,876.9,558.8z M1079.8,549.7c-0.3,0-0.7-0.2-1-0.3c-0.5-0.5-0.5-1.2,0-1.7c3.1-2.7,5.9-5.7,8.7-8.7
		c0.5-0.5,1.3-0.5,1.9-0.2c0.6,0.5,0.6,1.2,0.2,1.7c-2.8,3-5.8,6-8.8,8.8C1080.5,549.7,1080.1,549.8,1079.8,549.7z M858.4,542.2
		c-0.4,0-0.8-0.2-1-0.4c-1.1-1.2-2.3-2.4-3.4-3.7c-1.6-1.9-3.2-3.7-4.7-5.7c-0.3-0.5-0.2-1.3,0.4-1.6c0.6-0.3,1.3-0.2,1.7,0.3
		c1.5,1.9,3.1,3.7,4.6,5.5c1.1,1.2,2.2,2.4,3.3,3.7c0.4,0.5,0.4,1.2-0.2,1.7l0,0C859,542.2,858.7,542.2,858.4,542.2z M843.4,523.1
		c-0.5,0-1-0.2-1.1-0.6c-2.2-3.4-4.3-6.9-6.1-10.5c-0.3-0.6,0-1.3,0.7-1.6c0.6-0.2,1.4,0,1.7,0.5c1.8,3.5,3.8,6.9,6,10.3
		c0.3,0.5,0.2,1.3-0.5,1.6C843.8,523.1,843.5,523.1,843.4,523.1L843.4,523.1z M832.2,501.8c-0.5,0-1-0.3-1.2-0.8
		c-1.5-3.7-2.8-7.5-3.9-11.3c-0.2-0.6,0.3-1.3,1-1.5s1.5,0.2,1.7,0.9c1.1,3.7,2.4,7.4,3.8,11.1c0.3,0.6-0.1,1.3-0.8,1.6l0,0
		C832.6,501.8,832.4,501.8,832.2,501.8L832.2,501.8z"/>
	<path class="st7" d="M825.5,479.1c-0.7,0-1.2-0.4-1.3-1c-0.3-2-0.7-4-1-6c-0.1-0.6,0.4-1.2,1.1-1.3c0.7-0.1,1.4,0.4,1.5,1
		c0,0,0,0,0,0.1c0.3,2,0.6,3.9,1,5.9c0.1,0.6-0.3,1.2-1.1,1.4L825.5,479.1z"/>
	<path class="st7" d="M852.8,377c-0.3,0-0.5-0.1-0.8-0.2c-0.6-0.4-0.7-1.2-0.3-1.7c1.3-1.6,2.7-3.2,4.2-4.8c0.5-0.5,1.3-0.5,1.9-0.2
		c0.5,0.4,0.6,1.1,0.2,1.6c-1.4,1.6-2.8,3.1-4.1,4.7C853.6,376.9,853.2,377,852.8,377z"/>
	<path class="st7" d="M1118.8,427.7c-0.6,0-1.1-0.4-1.3-0.9c-1-4-2.2-8-3.6-11.9c-0.2-0.6,0.3-1.3,1-1.5s1.4,0.2,1.7,0.8
		c1.4,4,2.7,8,3.7,12.1c0.2,0.6-0.3,1.2-1,1.4l0,0C1119,427.7,1118.9,427.7,1118.8,427.7z M1110.4,404c-0.5,0-1-0.3-1.2-0.7
		c-1.8-3.7-3.8-7.5-6-11.1c-0.4-0.5-0.2-1.3,0.4-1.6c0.6-0.3,1.5-0.2,1.8,0.4c0,0.1,0.1,0.1,0.1,0.2c2.3,3.7,4.3,7.5,6.1,11.3
		c0.3,0.6,0,1.3-0.7,1.6C1110.7,404,1110.5,404,1110.4,404z M1097,382.2c-0.4,0-0.9-0.2-1.1-0.5c-1.9-2.6-4-5.1-6.2-7.6
		c-0.7-0.8-1.4-1.6-2-2.3c-0.4-0.5-0.3-1.3,0.3-1.6c0.5-0.3,1.3-0.2,1.7,0.2c0.7,0.8,1.4,1.6,2.1,2.3c2.2,2.5,4.4,5.1,6.3,7.8
		c0.4,0.5,0.3,1.3-0.3,1.6l0,0C1097.5,382.1,1097.2,382.2,1097,382.2L1097,382.2z M866.2,363c-0.8,0-1.3-0.5-1.3-1.2
		c0-0.3,0.2-0.6,0.3-0.9c3.2-3,6.7-5.9,10.3-8.5c0.5-0.5,1.4-0.4,1.9,0.2c0.5,0.5,0.4,1.2-0.2,1.7l0,0c-3.5,2.7-6.9,5.5-10.1,8.3
		C867,362.9,866.6,363,866.2,363L866.2,363z M1079.3,362.8c-0.3,0-0.7-0.2-1-0.4c-3.2-3-6.6-5.8-10.1-8.4c-0.5-0.5-0.6-1.2-0.2-1.7
		c0.5-0.5,1.3-0.5,1.9-0.2c3.6,2.7,7.1,5.5,10.3,8.5c0.5,0.5,0.5,1.2,0,1.7l0,0C1080,362.8,1079.7,362.8,1079.3,362.8L1079.3,362.8z
		 M887.5,347c-0.8,0-1.3-0.5-1.3-1.2c0-0.4,0.2-0.8,0.6-1c3.8-2.4,7.9-4.7,11.9-6.7c0.6-0.3,1.5-0.2,1.8,0.5l0,0
		c0.3,0.5,0.2,1.3-0.5,1.6c-4,2-8,4.2-11.7,6.6C888,346.9,887.8,347,887.5,347L887.5,347z M1058,346.9c-0.3,0-0.5-0.1-0.8-0.2
		c-3.8-2.3-7.7-4.5-11.7-6.6c-0.6-0.3-0.9-1.1-0.5-1.6l0,0c0.3-0.5,1.1-0.8,1.8-0.5l0,0c4.1,2,8.1,4.3,11.9,6.6
		c0.6,0.4,0.8,1.1,0.3,1.6C1058.9,346.7,1058.4,346.9,1058,346.9z M911.7,334.8c-0.5,0-1-0.3-1.2-0.7c-0.3-0.6,0-1.3,0.7-1.6
		c4.3-1.7,8.7-3.3,13.1-4.6c0.7-0.2,1.5,0.1,1.7,0.7s-0.1,1.3-0.8,1.6l0,0c-4.4,1.3-8.7,2.8-12.9,4.5
		C912.2,334.7,912,334.8,911.7,334.8L911.7,334.8z M1033.8,334.7c-0.2,0-0.3,0-0.5-0.1c-4.2-1.6-8.6-3.2-12.9-4.5
		c-0.7-0.2-1.1-0.9-0.9-1.5c0.2-0.6,1-1,1.7-0.8h0.1c4.5,1.3,8.8,2.9,13.1,4.6c0.7,0.3,1,1,0.7,1.6
		C1034.7,334.4,1034.3,334.7,1033.8,334.7L1033.8,334.7z M938.2,326.7c-0.6,0-1.1-0.4-1.3-0.9c-0.2-0.6,0.3-1.2,1-1.4l0,0
		c4.5-0.9,9.2-1.7,13.8-2.3c0.7-0.2,1.5,0.2,1.7,0.8c0.3,0.6-0.2,1.3-0.9,1.5c-0.2,0.1-0.3,0.1-0.4,0.1c-4.5,0.5-9.1,1.3-13.6,2.3
		C938.4,326.7,938.3,326.7,938.2,326.7z M1007.4,326.7c-0.1,0-0.2,0-0.3,0c-4.5-0.9-9.1-1.7-13.6-2.3c-0.7-0.1-1.2-0.7-1.1-1.3
		c0,0,0,0,0-0.1c0.1-0.6,0.8-1.1,1.5-1l0,0c4.6,0.5,9.3,1.3,13.8,2.3c0.7,0.2,1.1,0.9,0.9,1.5
		C1008.3,326.4,1007.9,326.7,1007.4,326.7L1007.4,326.7z M979.7,323.3L979.7,323.3c-4.6-0.2-9.3-0.2-13.9,0
		c-0.7,0.1-1.4-0.4-1.5-1.1s0.4-1.2,1.2-1.3c0.1,0,0.1,0,0.2,0c4.7-0.2,9.4-0.2,14.1,0c0.8,0,1.3,0.5,1.3,1.2
		C981.1,322.8,980.5,323.3,979.7,323.3L979.7,323.3z"/>
	<path class="st7" d="M1121.9,446c-0.7,0-1.3-0.5-1.3-1.1c-0.2-2-0.3-4-0.7-5.9c0.1-0.6,0.7-1.2,1.4-1.1c0.5,0,1,0.4,1.2,0.9
		c0.3,2,0.5,4,0.7,6C1123.3,445.4,1122.7,446,1121.9,446L1121.9,446z"/>
	<path class="st20" d="M942.8,500.3c5.6-4.2,26.8-36,60.9,0c3.7,1.7,13.2-3.1,12-6.5c-39.9-51.8-89.4-3.2-84.5,2.2
		S936.2,505.1,942.8,500.3z"/>
	<path class="st20" d="M1039.6,478.7c7.4-0.8,14.4-5.3,12.3-11.1c-2.1-5.8-72.9-79.6-151.9,3.7c-2,2.1-1.7,5.3,0.7,7.1l0,0
		c3.6,2.7,6.6,4.4,10.7,4.1C983.7,409.3,1032.2,479.5,1039.6,478.7z"/>
	<path class="st20" d="M1076.5,456.6c5.2,0.9,16.1-2.6,13.3-10.3C965,325.2,853.9,452.2,858,457.2c4.1,5.1,12.3,5.3,15.6,3.6
		C973,347.2,1071.3,455.7,1076.5,456.6z"/>
	<path class="st20" d="M989.2,518.8c0,8.1-7.4,14.7-16.5,14.7s-16.5-6.6-16.5-14.7c0-8.1,7.4-14.7,16.5-14.7
		C981.7,504,989.2,510.7,989.2,518.8L989.2,518.8z"/>
	
		<linearGradient id="SVGID_17_" gradientUnits="userSpaceOnUse" x1="5967.8613" y1="2344.4551" x2="6004.3745" y2="2252.8801" gradientTransform="matrix(-1 0 0 -1 6270.1289 2858.5996)">
		<stop  offset="0" style="stop-color:#09005D"/>
		<stop  offset="1" style="stop-color:#1A0F91"/>
	</linearGradient>
	<path class="st21" d="M284,564.7c0,0-13.6,5.9-16.2,12.7c-2,5.5-17,6.2-18.6,16.8c-0.7,5.5-5.4,9.9-11.5,10.8
		c-15.4,2.1-39.2,9.2-42.9,33.1c-2.9,18.2,7.5,25.1,18.4,27.5c8,1.8,13.4,8.7,11.7,15.9c-1.6,6.9,0.8,14.9,14.3,21.3
		c30.2,14.2,60.2-33.6,60.2-33.6l6.1-83.5L284,564.7z"/>
	
		<linearGradient id="SVGID_18_" gradientUnits="userSpaceOnUse" x1="6357.3022" y1="1795.894" x2="6267.2925" y2="1741.6232" gradientTransform="matrix(-0.98 -0.21 0.21 -0.98 6018.0415 3495.5945)">
		<stop  offset="0" style="stop-color:#FF928E"/>
		<stop  offset="1" style="stop-color:#FEB3B1"/>
	</linearGradient>
	<path class="st22" d="M448,545c0,0-60.2,84.9-131.8,101.3c0,0,14,35.4,24.7,39.5c0,0,88-65.5,110.7-128.8L448,545z"/>
	
		<linearGradient id="SVGID_19_" gradientUnits="userSpaceOnUse" x1="5967.1021" y1="1642.1453" x2="6011.1553" y2="2157.0334" gradientTransform="matrix(-1 0 0 -1 6270.1289 2858.5996)">
		<stop  offset="0" style="stop-color:#FF928E"/>
		<stop  offset="1" style="stop-color:#FEB3B1"/>
	</linearGradient>
	<path class="st23" d="M299.5,920.6l3,15.8c0,0-10.1,90.9-11.8,127.2c-0.3,5.7,1.4,11.3,4.7,16.2l17.5,25.4l-44.4-23.4l-0.9-4.8
		l7.3-8.9l-9.5-101.9c-0.5-6,0.8-11.9,3.9-17.2l9.2-15.4L299.5,920.6z"/>
	
		<linearGradient id="SVGID_20_" gradientUnits="userSpaceOnUse" x1="6004.6875" y1="1835.785" x2="5960.0034" y2="1704.156" gradientTransform="matrix(-1 0 0 -1 6270.1289 2858.5996)">
		<stop  offset="0" style="stop-color:#09005D"/>
		<stop  offset="1" style="stop-color:#1A0F91"/>
	</linearGradient>
	<path class="st24" d="M315.7,1108.7h-14.2c-2.6,0-5.2-1.1-6.8-3c-4.4-5.1-13.6-15.1-17.9-15.4c-5.9-0.3-5.2,18.3-5.2,18.3h-3.3
		l-4.2-23.2c-1-5.9,2.2-11.6,8.1-14.4c0,0,1.3,8.9,8.7,12.8c7.3,3.9,29.7,18,29.7,18c1.9-0.2,3.8-0.2,5.8,0.2
		C320.9,1102.8,320.3,1108.7,315.7,1108.7z"/>
	
		<linearGradient id="SVGID_21_" gradientUnits="userSpaceOnUse" x1="409.0119" y1="2131.5303" x2="216.8178" y2="2011.7231" gradientTransform="matrix(1 0 0 -1 -127.32 2858.5996)">
		<stop  offset="0" style="stop-color:#FE7062"/>
		<stop  offset="1" style="stop-color:#FF928E"/>
	</linearGradient>
	<path class="st25" d="M275.8,764.7c15.2-57.4-23.3-89.9-23.3-89.9c24.3-20.8,68.5-30.3,68.5-30.3s42.2,27.5,37.2,49.1
		c-2.9,12.6-29.6,75.7-29.6,75.7S303.8,779.8,275.8,764.7z"/>
	
		<linearGradient id="SVGID_22_" gradientUnits="userSpaceOnUse" x1="663.3007" y1="2237.2869" x2="469.7345" y2="2060.1245" gradientTransform="matrix(1 0 0 -1 -127.32 2858.5996)">
		<stop  offset="0" style="stop-color:#09005D"/>
		<stop  offset="1" style="stop-color:#1A0F91"/>
	</linearGradient>
	<path class="st26" d="M242.1,793.2c6.2-16.6,33.7-28.5,33.7-28.5c28.1,15.1,52.8,4.6,52.8,4.6s5.5,19,1.7,36.5
		c-3.8,17.6-27.8,130.5-27.8,130.5c-37.9,6.9-96-6.9-96-6.9C230.6,891.2,235.9,809.8,242.1,793.2z"/>
	
		<linearGradient id="SVGID_23_" gradientUnits="userSpaceOnUse" x1="448.7032" y1="2278.0183" x2="388.1589" y2="2127.2397" gradientTransform="matrix(1 0 0 -1 -127.32 2858.5996)">
		<stop  offset="0" style="stop-color:#FF928E"/>
		<stop  offset="1" style="stop-color:#FEB3B1"/>
	</linearGradient>
	<path class="st27" d="M293.4,606.6l-12.3,49.5c-1.2,4.4,3.3,3.7,8.2,2.8c8.1-1.4,18.5-4.1,22-9.8c0.3-0.5,0.5-1.2,0.6-1.9l5.3-34.3
		c0.4-2.7-1.2-5.4-4-6.5l-10.2-4.1c-3.5-1.4-7.6,0-9.1,3.1C293.7,605.9,293.5,606.2,293.4,606.6z"/>
	
		<linearGradient id="SVGID_24_" gradientUnits="userSpaceOnUse" x1="553.0776" y1="2215.355" x2="470.8438" y2="2168.0083" gradientTransform="matrix(1 0 0 -1 -127.32 2858.5996)">
		<stop  offset="0" style="stop-color:#FF928E"/>
		<stop  offset="1" style="stop-color:#FEB3B1"/>
	</linearGradient>
	<path class="st28" d="M252.5,674.8c0,0-86.2,55-11,112.9c2.4,2.1,5.3,3.6,8.5,4.4c2.9,0.8,11.3,6.5,15.6,9.4
		c1.3,0.9,3.1,0.7,4.1-0.5c0.1-0.1,0.1-0.2,0.2-0.2c0.7-1,0.8-2.3,0.3-3.4l-10.7-20.1c-3-2.5-7.5-2.7-10.7-0.4
		c-1.7,1.2-4.3,0.9-5.7-0.6c-0.2-0.2-0.3-0.4-0.4-0.6c-5.8-10.5-16.8-41.7,28.2-76.7c1.7-1.3,2.1-3.5,1-5.3
		C268.6,688.1,261.3,677.4,252.5,674.8z"/>
	
		<linearGradient id="SVGID_25_" gradientUnits="userSpaceOnUse" x1="6154.084" y1="1862.1473" x2="6162.2827" y2="1761.4214" gradientTransform="matrix(-0.98 -0.19 0.19 -0.98 6031.5986 3435.366)">
		<stop  offset="0" style="stop-color:#FF928E"/>
		<stop  offset="1" style="stop-color:#FEB3B1"/>
	</linearGradient>
	<path class="st29" d="M317.1,561.4c0,0,13.1,8,18.8,28.2c5.7,20.2-3.5,27.5-12.9,27.1s-23.1-3-34.9-17.6
		C276.3,584.6,299.9,551.8,317.1,561.4z"/>
	
		<linearGradient id="SVGID_26_" gradientUnits="userSpaceOnUse" x1="6157.5737" y1="1786.9017" x2="6195" y2="1693.0085" gradientTransform="matrix(-0.98 -0.19 0.19 -0.98 6031.5986 3435.366)">
		<stop  offset="0" style="stop-color:#09005D"/>
		<stop  offset="1" style="stop-color:#1A0F91"/>
	</linearGradient>
	<path class="st30" d="M300,590.9c0,0-4.8-29,22.1-24.6l5.4,5.1c0,0,13.2-13.3-1.4-23.3c-14.6-10.1-34.9-7.5-46.1,10.8
		s-15.3,31-5.9,42.4s16.4,1.6,16.4,1.6s-4.3-9.8-0.7-14c3.6-4.2,8.2,2.4,8.2,2.4L300,590.9z"/>
	
		<linearGradient id="SVGID_27_" gradientUnits="userSpaceOnUse" x1="6176.8042" y1="1862.1813" x2="6184.9429" y2="1762.2028" gradientTransform="matrix(-0.98 -0.19 0.19 -0.98 6031.5986 3435.366)">
		<stop  offset="0" style="stop-color:#FF928E"/>
		<stop  offset="1" style="stop-color:#FEB3B1"/>
	</linearGradient>
	<path class="st31" d="M296.3,593.4c0,0-2.4-14.9-10.9-10.7c-8.6,4.2,3.1,14,7.7,17.2L296.3,593.4z"/>
	
		<linearGradient id="SVGID_28_" gradientUnits="userSpaceOnUse" x1="6285.0586" y1="1872.9324" x2="6199.207" y2="1821.1774" gradientTransform="matrix(-0.98 -0.21 0.21 -0.98 6018.0415 3495.5945)">
		<stop  offset="0" style="stop-color:#FF928E"/>
		<stop  offset="1" style="stop-color:#FEB3B1"/>
	</linearGradient>
	<path class="st32" d="M447.7,562.5c0.2,1.7-7.2,3-9.4-4.5c0.6-3.3,1.7-17.5,4.5-19.7c14.9-11.8,41.3-25,41.3-25
		c1.7,2.1,1.4,5.1-0.9,6.7l-13.2,8c1.4,4.1,3.4,7.6,3.6,12.3c0.2,3.5-1.2,7-3.9,9.7c-2.6,2.7-6.1,6.2-9.4,8.7
		C456.9,561.6,452.3,563,447.7,562.5z"/>
	
		<linearGradient id="SVGID_29_" gradientUnits="userSpaceOnUse" x1="593.2303" y1="2409.5137" x2="561.5128" y2="2101.7522" gradientTransform="matrix(1 0 0 -1 -127.32 2858.5996)">
		<stop  offset="0" style="stop-color:#FF928E"/>
		<stop  offset="1" style="stop-color:#FEB3B1"/>
	</linearGradient>
	<path class="st33" d="M454.8,556.7l-2-0.7c0.3-0.6,6.6-14.4,9.7-17.2c1.1-1.1,1.7-2,1.7-2.7c-0.1-0.5-0.3-0.9-0.7-1.2l-10.7,5.1
		l-4.7,6.6l-1.8-1l5.1-7l12.5-6l0.6,0.4c1.1,0.7,1.8,1.8,2,3c0.1,1.3-0.7,2.7-2.3,4.2C461.7,542.2,456.6,552.8,454.8,556.7z"/>
	
		<linearGradient id="SVGID_30_" gradientUnits="userSpaceOnUse" x1="20812.2012" y1="1767.1746" x2="20854.3887" y2="1767.1746" gradientTransform="matrix(-1 0 0 -1 22599.0391 2858.5996)">
		<stop  offset="0" style="stop-color:#09005D"/>
		<stop  offset="1" style="stop-color:#1A0F91"/>
	</linearGradient>
	<path class="st34" d="M1780.9,1078.2c0,0,4.7,6.6,5.9,25c0.1,1.6-1.3,3-3.1,3.2c-0.1,0-0.1,0-0.2,0h-36.6c-1.2,0-2.2-0.9-2.2-2
		c0-0.2,0-0.4,0.1-0.6c2.2-5.7,8.7-19.5,23.2-27.4L1780.9,1078.2z"/>
	
		<linearGradient id="SVGID_31_" gradientUnits="userSpaceOnUse" x1="20816.4434" y1="1784.6339" x2="20833.5547" y2="1784.6339" gradientTransform="matrix(-1 0 0 -1 22599.0391 2858.5996)">
		<stop  offset="0" style="stop-color:#FF928E"/>
		<stop  offset="1" style="stop-color:#FEB3B1"/>
	</linearGradient>
	<path class="st35" d="M1782.6,1065.7l-2.1,15.5c-0.2,1.3-1.4,2.4-2.9,2.6c-2.5,0.3-5.2,0.2-7.8-0.1c-2.6-0.4-4.5-2.4-4.5-4.8v-15
		L1782.6,1065.7z"/>
	
		<linearGradient id="SVGID_32_" gradientUnits="userSpaceOnUse" x1="20901.8066" y1="1767.7231" x2="20967.9063" y2="1767.7231" gradientTransform="matrix(-1 0 0 -1 22599.0391 2858.5996)">
		<stop  offset="0" style="stop-color:#09005D"/>
		<stop  offset="1" style="stop-color:#1A0F91"/>
	</linearGradient>
	<path class="st36" d="M1690.3,1076.5c4.5,7,6.9,15,6.9,23.1c-0.1,3.1-3,5.7-6.5,5.6h-56.9c-1.5,0-2.7-1.1-2.7-2.4
		c0-0.8,0.4-1.6,1.1-2c10.8-6.8,31.9-19.3,47.3-24.3L1690.3,1076.5z"/>
	
		<linearGradient id="SVGID_33_" gradientUnits="userSpaceOnUse" x1="20902.8574" y1="1791.2903" x2="20919.875" y2="1791.2903" gradientTransform="matrix(-1 0 0 -1 22599.0391 2858.5996)">
		<stop  offset="0" style="stop-color:#FF928E"/>
		<stop  offset="1" style="stop-color:#FEB3B1"/>
	</linearGradient>
	<path class="st37" d="M1696.1,1059.8l-4.5,19.2c-0.4,2.1-2.8,3.5-5.2,3.1h-0.1c-1.7-0.4-3.5-1-5-1.9c-1.7-1-2.6-2.8-2.3-4.6
		l4.5-23.2L1696.1,1059.8z"/>
	
		<linearGradient id="SVGID_34_" gradientUnits="userSpaceOnUse" x1="2079.5129" y1="2289.0732" x2="1984.2188" y2="2117.5435" gradientTransform="matrix(1 0 0 -1 -127.32 2858.5996)">
		<stop  offset="0" style="stop-color:#09005D"/>
		<stop  offset="1" style="stop-color:#1A0F91"/>
	</linearGradient>
	<path class="st38" d="M1774.5,793.4c0,0,15.4,12.1,18.3,26.7c2.9,14.6-8.2,251-8.2,251s-15.4,2.3-23.3-2c0,0-9.4-153.5-16.5-188.9
		c0,0-37.5,159-47.8,187.7c0,0-14.8,1.6-19.6-0.9c0,0,9.8-206.1,22.1-242.7L1774.5,793.4z"/>
	
		<linearGradient id="SVGID_35_" gradientUnits="userSpaceOnUse" x1="2096.3098" y1="2111.1509" x2="1942.7069" y2="2031.223" gradientTransform="matrix(1 0 0 -1 -127.32 2858.5996)">
		<stop  offset="0" style="stop-color:#09005D"/>
		<stop  offset="1" style="stop-color:#1A0F91"/>
	</linearGradient>
	<path class="st39" d="M1745.1,875c-0.1,0-0.3,0-0.3,0c-0.8-0.2-1.2-0.9-1-1.6l6.6-22.4c0.1-0.3,0.3-0.6,0.6-0.8l14.1-8
		c0.7-0.4,1.6-0.2,2,0.4c0.4,0.6,0.3,1.4-0.4,1.8l0,0l-13.6,7.8l-6.4,21.8C1746.3,874.6,1745.8,875,1745.1,875z"/>
	
		<linearGradient id="SVGID_36_" gradientUnits="userSpaceOnUse" x1="1845.6906" y1="2399.0747" x2="1810.7939" y2="2311.8413" gradientTransform="matrix(1 0 0 -1 -127.32 2858.5996)">
		<stop  offset="0" style="stop-color:#E1473D"/>
		<stop  offset="1" style="stop-color:#E9605A"/>
	</linearGradient>
	<path class="st40" d="M1622.7,656.8c64.7-4.8,81.7,7.2,81.7,7.2l-31.1,43.8c0,0-63.6-1.1-109.2-32.4c7.4-7.3,13.6-15.4,18.3-24.3
		C1595.1,655.8,1609,657.8,1622.7,656.8z"/>
	
		<linearGradient id="SVGID_37_" gradientUnits="userSpaceOnUse" x1="21016.707" y1="2235.7744" x2="21079.918" y2="2235.7744" gradientTransform="matrix(-1 0 0 -1 22599.0391 2858.5996)">
		<stop  offset="0" style="stop-color:#FF928E"/>
		<stop  offset="1" style="stop-color:#FEB3B1"/>
	</linearGradient>
	<path class="st41" d="M1521.4,572c0-1,1-1.7,2-1.7c0.8,0,1.4,0.4,1.7,1l8.2,15.8c1.6,3,2.1,6.5,1.5,9.8l-2.9,9.1
		c-0.9,4.4,0.4,9,3.6,12.6c7.6,8.4,23.8,23.9,46.8,32.4c-4.7,8.9-10.8,17.1-18.3,24.3c-16.7-11.5-31-27.1-38.8-48.1
		c-3.8-1-6.3-4.2-6.1-7.6L1521.4,572z"/>
	
		<linearGradient id="SVGID_38_" gradientUnits="userSpaceOnUse" x1="-4598.6494" y1="2145.4082" x2="-4289.3345" y2="1906.877" gradientTransform="matrix(1 0 0 -1 6234.7603 2858.5996)">
		<stop  offset="0" style="stop-color:#FE7062"/>
		<stop  offset="1" style="stop-color:#FF928E"/>
	</linearGradient>
	<path class="st42" d="M1601.4,682.2c22.8-21.9,66.2-31.8,91.3-35.9c11-1.8,21.9,3.7,25.8,13c11.3,27.1,42.1,97.7,48,109.8
		c4.9,10,10,19.7,13.2,25.7c1.9,3.6,0.3,8-3.8,9.8c-21.2,9.1-59.2,19.3-74.6,23.4c-2.8,0.7-5.8-0.7-6.6-3.2
		c-0.2-0.5-0.2-0.9-0.2-1.3c0-2.7-0.8-5.3-2.4-7.6l-58.4-86.8c-36.4,36-68.3,39.3-92.8,31.4c4-11.1,6.7-22.5,8.1-34.2
		C1585.4,720.9,1601.4,682.2,1601.4,682.2z"/>
	
		<linearGradient id="SVGID_39_" gradientUnits="userSpaceOnUse" x1="21154.7051" y1="2228.3628" x2="21026.8984" y2="2069.364" gradientTransform="matrix(-1 0 0 -1 22599.0391 2858.5996)">
		<stop  offset="0" style="stop-color:#FF928E"/>
		<stop  offset="1" style="stop-color:#FEB3B1"/>
	</linearGradient>
	<path class="st43" d="M1489.4,720.3l6.6-7.8c21.2,12.9,38.8,16,53.2,13.8c-1.3,11.6-4,23-8.1,34.1
		C1508.8,750.1,1489.4,720.3,1489.4,720.3z"/>
	
		<linearGradient id="SVGID_40_" gradientUnits="userSpaceOnUse" x1="21184.8887" y1="2210.0317" x2="21051.7676" y2="2044.4122" gradientTransform="matrix(-1 0 0 -1 22599.0391 2858.5996)">
		<stop  offset="0" style="stop-color:#FF928E"/>
		<stop  offset="1" style="stop-color:#FEB3B1"/>
	</linearGradient>
	<path class="st44" d="M1493.9,720.5l-36.8,1.2l-33.8-16.8c4.9-2.7,32.3,2.8,32.3,2.8s28.8-3.9,36.5-3.9c6.5,0,5.5,8.3,5.1,11.1
		c-0.1,0.5-0.2,0.9-0.2,0.9L1493.9,720.5z"/>
	
		<linearGradient id="SVGID_41_" gradientUnits="userSpaceOnUse" x1="21000.5273" y1="2315.7502" x2="20880.6543" y2="2095.4885" gradientTransform="matrix(-1 0 0 -1 22599.0391 2858.5996)">
		<stop  offset="0" style="stop-color:#FF928E"/>
		<stop  offset="1" style="stop-color:#FEB3B1"/>
	</linearGradient>
	<path class="st45" d="M1658.2,606.1l19.4,42.2c0,0-22.3,13.8-40.2,12.5l-9.7-38L1658.2,606.1z"/>
	
		<linearGradient id="SVGID_42_" gradientUnits="userSpaceOnUse" x1="18713.9609" y1="-9975.2686" x2="18661.7734" y2="-10044.3145" gradientTransform="matrix(-0.82 -0.58 0.58 -0.82 22765.6855 3255.6509)">
		<stop  offset="0" style="stop-color:#FF928E"/>
		<stop  offset="1" style="stop-color:#FEB3B1"/>
	</linearGradient>
	<path class="st46" d="M1625.4,577.3c-0.4,0.5-14.1,44.4-14.1,44.4l28.2,6.4l19.8-39.8C1659.4,588.3,1632.8,567.9,1625.4,577.3z"/>
	
		<linearGradient id="SVGID_43_" gradientUnits="userSpaceOnUse" x1="-4610.9697" y1="2280.9241" x2="-4546.9839" y2="2162.0994" gradientTransform="matrix(1 0 0 -1 6234.7603 2858.5996)">
		<stop  offset="0" style="stop-color:#09005D"/>
		<stop  offset="1" style="stop-color:#1A0F91"/>
	</linearGradient>
	<path class="st47" d="M1648.7,594.4l-8.5,21.6c-0.1,0.3-0.3,0.5-0.4,0.8c-1.1,1.5-5.6,6.3-10.8,2c-4.7-3.9-9.2-7.5-13.3-8.1
		c-1.8-0.3-3.6,0.7-4.1,2.3c-2.2,6.9-3.8,14-4.7,21.1c-0.2,1.6,1.1,3.1,2.9,3.4c5.5,0.9,17.2,2.6,26.9,2c1.3-0.1,2.4-0.8,3.1-1.9
		c2.7-5.2,10.9-21.1,14-25.3c2.9-3.9,9.9-3.7,12.9-3.5c1,0.1,1.9-0.2,2.6-0.8c2.6-2,7.5-7.2,0.6-13.3c-1.4-1.2-1.4-3.3,0-4.5
		l0.1-0.1c3-2.5,6.1-6.9,1.2-12.4s-11.7-4.7-15.7-3.4c-1.7,0.5-3.5-0.1-4.4-1.4c-0.6-0.9-1.7-1.4-3-1.2c-1.9,0.1-3.7-1.2-3.8-3
		c0-0.1,0-0.2,0-0.3c0.1-3.6-1.4-8.1-8.3-10c-12.3-3.4-20,7.2-20.8,15.1s12.9,10.9,20.8,10.5c6.1-0.4,10.6,5,12.4,7.6
		C1648.9,592.4,1649.1,593.4,1648.7,594.4z"/>
	
		<linearGradient id="SVGID_44_" gradientUnits="userSpaceOnUse" x1="18639.8457" y1="-10024.2988" x2="18681.6387" y2="-9981.4229" gradientTransform="matrix(-0.82 -0.58 0.58 -0.82 22765.6855 3255.6509)">
		<stop  offset="0" style="stop-color:#FF928E"/>
		<stop  offset="1" style="stop-color:#FEB3B1"/>
	</linearGradient>
	<path class="st48" d="M1650.5,620.3c0,0,2-13.7,8.4-14.4s12.7,4.1,6.3,11.8C1657.2,627.2,1650.5,620.3,1650.5,620.3z"/>
	
		<linearGradient id="SVGID_45_" gradientUnits="userSpaceOnUse" x1="1391.3535" y1="2288.6682" x2="1714.9536" y2="2288.6682" gradientTransform="matrix(1 0 0 -1 -127.321 2858.5935)">
		<stop  offset="0" style="stop-color:#E1473D"/>
		<stop  offset="1" style="stop-color:#E9605A"/>
	</linearGradient>
	<ellipse class="st49" cx="1425.8" cy="569.9" rx="161.8" ry="144.4"/>
	
		<linearGradient id="SVGID_46_" gradientUnits="userSpaceOnUse" x1="1396.7535" y1="2288.6682" x2="1709.5536" y2="2288.6682" gradientTransform="matrix(1 0 0 -1 -127.321 2858.5935)">
		<stop  offset="0" style="stop-color:#FE7062"/>
		<stop  offset="1" style="stop-color:#FF928E"/>
	</linearGradient>
	<ellipse class="st50" cx="1425.8" cy="569.9" rx="156.4" ry="139.5"/>
	
		<linearGradient id="SVGID_47_" gradientUnits="userSpaceOnUse" x1="1333.5846" y1="2638.7676" x2="1354.6089" y2="2546.502" gradientTransform="matrix(1 0 0 -1 -127.32 2858.5996)">
		<stop  offset="0" style="stop-color:#FF928E"/>
		<stop  offset="1" style="stop-color:#FEB3B1"/>
	</linearGradient>
	<path class="st51" d="M1281.6,564.5L1281.6,564.5c-1-0.1-1.7-0.7-1.7-1.6l0,0c0.3-5.5,1-11,2.1-16.4c0.2-0.8,1-1.3,1.9-1.2
		s1.5,0.9,1.3,1.7c-1,5.3-1.7,10.6-2.1,16C1283.2,563.9,1282.5,564.5,1281.6,564.5z"/>
	
		<linearGradient id="SVGID_48_" gradientUnits="userSpaceOnUse" x1="1440.6305" y1="2649.1504" x2="1460.7363" y2="2560.9153" gradientTransform="matrix(1 0 0 -1 -127.32 2858.5996)">
		<stop  offset="0" style="stop-color:#FF928E"/>
		<stop  offset="1" style="stop-color:#FEB3B1"/>
	</linearGradient>
	<path class="st52" d="M1296.8,513.3c-0.3,0-0.5-0.1-0.7-0.2c-0.8-0.4-1.1-1.2-0.7-2l0,0c24.7-44.1,75.3-71.8,130.4-71.7
		c8.8,0,17.7,0.7,26.3,2.1c0.9,0.2,1.5,0.9,1.3,1.7s-1,1.3-1.9,1.2l0,0c-8.5-1.4-17.1-2.1-25.8-2.1c-53.9-0.2-103.3,27-127.6,70
		C1298.1,513,1297.5,513.3,1296.8,513.3z"/>
	
		<linearGradient id="SVGID_49_" gradientUnits="userSpaceOnUse" x1="1424.1443" y1="2285.6721" x2="1688.9443" y2="2285.6721" gradientTransform="matrix(1 0 0 -1 -127.3117 2858.5974)">
		<stop  offset="0" style="stop-color:#DAE3FE"/>
		<stop  offset="1" style="stop-color:#E9EFFD"/>
	</linearGradient>
	<ellipse class="st53" cx="1429.2" cy="572.9" rx="132.4" ry="118.1"/>
	
		<linearGradient id="SVGID_50_" gradientUnits="userSpaceOnUse" x1="1458.621" y1="2286.2959" x2="1647.832" y2="2286.2959" gradientTransform="matrix(1 0 0 -1 -127.32 2858.5996)">
		<stop  offset="0" style="stop-color:#FE7062"/>
		<stop  offset="1" style="stop-color:#FF928E"/>
	</linearGradient>
	<path class="st54" d="M1383.9,636.8c-6.3,0-12.2-2.7-15.8-7.3l-33.2-42c-6-7.9-3.8-18.6,5.1-24.1c8.7-5.3,20.5-3.4,26.6,4.1
		l20.6,26.1l100.9-81.5c8-6.3,20.3-5.7,27.4,1.5c7,7,6.4,17.8-1.3,24.2L1397,632.4C1393.4,635.1,1388.7,636.8,1383.9,636.8z"/>
</g>
</svg>
