<?xml version="1.0" encoding="utf-8"?>
<!-- Generator: Adobe Illustrator 22.0.0, SVG Export Plug-In . SVG Version: 6.00 Build 0)  -->
<svg version="1.1" id="Слой_1" xmlns="http://www.w3.org/2000/svg" xmlns:xlink="http://www.w3.org/1999/xlink" x="0px" y="0px"
	 viewBox="0 0 193 187.5" style="enable-background:new 0 0 193 187.5;" xml:space="preserve">
<style type="text/css">
	.st0{fill:#E0E0E0;}
	.st1{opacity:0.72;fill:#E0E0E0;enable-background:new    ;}
	.st2{fill:#5C5049;}
	.st3{fill:#C9C5B4;}
	.st4{fill:#292C47;}
	.st5{fill:#D4C3BD;}
	.st6{fill:#DE9673;}
	.st7{fill:#D44040;}
	.st8{fill:#EEA886;}
	.st9{fill:#E6D3CC;}
	.st10{fill:#DED1C5;}
	.st11{fill:#BC8551;}
	.st12{fill:#A77860;}
	.st13{opacity:0.72;fill:#FFFFFF;enable-background:new    ;}
	.st14{fill:#807066;}
	.st15{fill:#7ABFFA;}
	.st16{fill:#68B4F2;}
	.st17{fill:#A3D5FF;}
	.st18{fill:#FFC655;}
	.st19{fill:#FFFFFF;}
	.st20{fill:#CFC147;}
	.st21{fill:#A09832;}
	.st22{fill:#727643;}
	.st23{fill:#4B4C37;}
	.st24{fill:#444532;}
	.st25{fill:#7D776B;}
	.st26{fill:#736D38;}
	.st27{fill:#477830;}
	.st28{fill:#92B856;}
	.st29{fill:#367031;}
	.st30{fill:#5B802A;}
	.st31{fill:#4B5E26;}
	.st32{fill:#3A472D;}
	.st33{fill:#6A8F39;}
	.st34{fill:#46402B;}
	.st35{fill:#706C3A;}
	.st36{fill:#858045;}
	.st37{fill:url(#SVGID_1_);}
	.st38{fill:url(#SVGID_2_);}
	.st39{fill:url(#SVGID_3_);}
	.st40{fill:url(#SVGID_4_);}
	.st41{fill:url(#SVGID_5_);}
</style>
<title>girl</title>
<rect x="115.1" y="4.1" class="st0" width="38" height="2"/>
<g>
	<path class="st1" d="M132.8,32.5h9.9c1.3,0,2.4,1.2,2.4,2.6v11.7c0,1.4-1.1,2.6-2.4,2.6h-9.9c-1.3,0-2.4-1.2-2.4-2.6V35
		C130.4,33.6,131.5,32.5,132.8,32.5z"/>
	<polygon class="st2" points="125.3,141 120.4,103.7 121.4,103.5 126.3,140.8 	"/>
	<polygon class="st2" points="119.4,141 114.5,103.7 115.4,103.5 120.3,140.8 	"/>
	<polygon class="st2" points="90,141 89,140.8 93.9,103.5 94.9,103.7 	"/>
	<path class="st3" d="M122,104.1l3.8-46.3c0,0-6.7-1-10.7-0.8l-6.1,47H122z"/>
	<rect x="109" y="101.7" class="st3" width="13" height="2.3"/>
	<path class="st3" d="M100.5,102.2l-2-44.1c0,0,16.9-2.1,27.4-0.3L100.5,102.2z"/>
	<path class="st4" d="M114,43.8c0,0,2.6-8.8-2.4-11.5s-9.2,1.2-10,3.4c-0.8,2.1-0.6,6,0.1,8.7c0.7,2.7,0.6,6.8-0.9,8.2
		c-1.5,1.4-3.3,3.7-3.2,8.3c0.1,2.9,9.9-7.4,9.9-7.4L114,43.8z"/>
	<path class="st5" d="M107.3,138.6c0,0-0.2,6.2,0.6,6.6c0.8,0.4,3.7-1.8,5-3.9c1.3-2.1-1.6-7.1-2.1-9.9c-0.2-1.1-2.5-3.2-3.6-2.6
		c-0.8,0.5-1.5,1.2-1.9,2.1C105.4,130.9,108.2,133.1,107.3,138.6z"/>
	<path class="st6" d="M105.4,130.9c0.6,1.2,1,2.5,1.5,3.8c0.5,1.7,0.6,6.2,0.9,6.5c0.3,0.3,2.8-1.1,3.1-2.8c0.3-1.7-0.7-5.1-1.6-6.9
		c-0.5-1-1.1-1.9-1.9-2.7C106.3,129,105.5,129.9,105.4,130.9z"/>
	<polygon class="st5" points="110.9,131.4 113.5,135.9 113,136.3 111,132.8 	"/>
	<path class="st6" d="M101.4,82.5c0,0,1.3,2.5,0,4.3c-1.3,1.8-10,6.8-9.9,9.7c0.1,2.9,1.7,7.4,2.2,8.6c0.6,1.1,2.7,5.9,3.8,8.7
		c1.1,2.8,7.4,16.1,8.7,19.1c1.2,3,0.5-12,0.5-12l-6.3-21.3l14.8-16.6C115.1,83.1,113.3,78.5,101.4,82.5z"/>
	<path class="st7" d="M107,54.3c0,0-4.1,1.1-5.7,2.1c-1.6,1.1-5.3,6.1-5.3,8.3c0,2.1,15.8,4.2,15.8,4.2l3,12.6c0,0,8-2.3,9-4.1
		c1-1.8-3.1-15.1-3.7-17.9c-0.6-2.8-3.6-4.7-6.9-5.2C111.1,54,109,54,107,54.3z"/>
	<path class="st8" d="M116.7,82.9c0,0-0.3,2.1,0.5,3.1s4.3,6.2,2.4,11.4c-1.7,4.8-5,4.7-5,4.7h-5.1c0,0,1.5,8.6,1,14.3
		s-2.7,18.7-2.8,19.3c0,0.7-2.2,2.7-2.8,1.7c0,0-0.1-7.8-0.4-10.8c-0.3-3-1.7-14.8-2.2-16.5c-0.4-1.8-3-7-3-7.6s-2.5-9.1,2.9-11.3
		C107.7,89.2,109.6,83,116.7,82.9z"/>
	<path class="st9" d="M102.4,143.5c0,0-3.5,4.7-3.1,5.6s3.9,1.3,6,0.6c2.2-0.7,2.6-6.7,3.8-9.2c0.5-1-0.2-4.3-1.4-4.6
		c-0.9-0.2-1.8-0.1-2.7,0.3C105,136,106,139.8,102.4,143.5z"/>
	<path class="st8" d="M105,136c-0.2,1.3-0.6,2.7-0.9,4c-0.5,1.6-2.9,5.3-2.9,5.7c0.1,0.5,2.8,1.1,3.9,0s2.3-4.5,2.5-6.5
		c0.2-1.2,0.2-2.3,0-3.5C106.8,135.3,105.8,135.4,105,136z"/>
	<polygon class="st9" points="109,140.4 108.6,145.8 108,145.7 108.3,141.6 	"/>
	<path class="st4" d="M119.6,97.4c-1.6,4.9-5,4.7-5,4.7h-5.1c-1.7-2.6-4.4-4.3-7.4-4.6c-1.3-0.2-2.6-0.1-3.9,0.1h-0.1
		c-7,1.2-5.6,4.1-5.6,4.2c-0.6-1.6-1.2-4.2-1-5.6c0.7-6.3,8.6-7.6,9.9-9.5c1.3-1.8,0-4.3,0-4.3c11.9-4,13.7,0.5,13.7,0.5
		c0.5-0.1,1.9-1,2.4-1c0,0,0.6,1.5,1,2.8C118.9,86.1,121.3,92.2,119.6,97.4z"/>
	<polygon class="st10" points="114.6,62.7 116.4,81.5 93.2,81.5 91.5,62.7 	"/>
	<rect x="114.4" y="79.8" class="st10" width="3.9" height="1.7"/>
	<rect x="69.2" y="81.5" class="st11" width="72.3" height="2.6"/>
	<path class="st8" d="M109.6,33.8c0,0,5.2,1.8,4.5,10c-0.7,8.3-4.1,7.8-4.5,7.9c-0.3,0.1-4.3,0.4-5.6-9.7
		C102.7,32,109.6,33.8,109.6,33.8z"/>
	<path class="st8" d="M112,50.2c-0.2,1.5-0.1,3,0.2,4.5c0.5,1.7-6.1,1.8-6,0.4c0-1.6,0.7-2.9,0-5.7C105.6,46.6,112,50.2,112,50.2z"
		/>
	<path class="st4" d="M108.2,37.5c0,0,2.8,5.2,5.8,6.3c0,0,1.6-8.6-5.1-10.5c-6.7-1.8-5.6,8.7-5.2,11.6
		C104.8,42.1,106.3,39.6,108.2,37.5z"/>
	<path class="st12" d="M107,50.6c1.2,1.4,3.3,1.6,4.7,0.3c-0.2,1-1.1,1.8-2.1,1.8C107.7,52.8,107,50.6,107,50.6z"/>
	<path class="st13" d="M104.5,36.7c0,0,1.5-3.3,4-3.5c2.5-0.1,4,2.3,4,2.3c-0.7-1.7-2.3-2.8-4-2.8C105.4,32.8,104.5,36.7,104.5,36.7
		z"/>
	<path class="st8" d="M112.9,54.3c0,0-0.1,5.7-4,5.9c-4,0.2-3.1-5.5-3.1-5.5C108,53.8,110.5,53.7,112.9,54.3z"/>
	<rect x="139.9" y="84" class="st14" width="1.6" height="58.8"/>
	<rect x="71.6" y="84" class="st14" width="1.6" height="58.8"/>
	<rect x="149.3" y="35.6" class="st0" width="14" height="1.5"/>
	<rect x="149.3" y="42.2" class="st0" width="24.3" height="1.5"/>
	<rect x="149.3" y="38.9" class="st0" width="19.1" height="1.5"/>
	<rect x="149.3" y="45.6" class="st0" width="10.6" height="1.5"/>
	<rect x="132.6" y="36.9" class="st15" width="10.2" height="8"/>
	<polygon class="st16" points="132.6,44.9 137.7,40.4 142.8,44.9 	"/>
	<polygon class="st17" points="142.8,36.9 137.7,41.9 132.6,36.9 	"/>
	<path class="st1" d="M118.8,9.3h9.9c1.3,0,2.4,1.2,2.4,2.6v11.7c0,1.4-1.1,2.6-2.4,2.6h-9.9c-1.3,0-2.4-1.2-2.4-2.6V11.9
		C116.4,10.5,117.5,9.3,118.8,9.3z"/>
	<rect x="135.4" y="19.1" class="st0" width="34.3" height="1.5"/>
	<rect x="135.4" y="15.7" class="st0" width="13.6" height="1.5"/>
	<rect x="135.4" y="22.4" class="st0" width="19.6" height="1.5"/>
	<rect x="118.6" y="13.7" class="st15" width="10.2" height="8"/>
	<polygon class="st16" points="118.6,21.7 123.7,17.3 128.8,21.7 	"/>
	<polygon class="st17" points="128.8,13.7 123.7,18.7 118.6,13.7 	"/>
	<rect x="149.3" y="58.4" class="st0" width="18.9" height="1.5"/>
	<polygon class="st18" points="72.3,15.1 96.7,15.3 96.6,35.6 96.6,39.9 92.9,35.6 72.2,35.4 	"/>
	<path class="st19" d="M82.6,26.1c0.1,1.1,0.9,2,2,1.9s1.8-1,1.8-2.1c-0.1-1.1-0.9-1.9-1.9-1.9C83.4,24.1,82.6,25,82.6,26.1z"/>
	<path class="st19" d="M76.5,26.1c0.1,1.1,0.9,2,2,1.9s1.8-1,1.8-2.1c-0.1-1.1-0.9-1.9-1.9-1.9C77.3,24.1,76.4,25,76.5,26.1z"/>
	<path class="st19" d="M88.6,26.2c0.1,1.1,0.9,2,2,1.9s1.8-1,1.8-2.1c-0.1-1.1-0.9-1.9-1.9-1.9C89.4,24.1,88.5,25,88.6,26.2z"/>
	<path class="st20" d="M84,74.8L84,74.8c0,0,1.4,0.8,1,0.4c-0.4-0.3,0.9-2.3,2.7-4.8s0.6-3.7-0.5-6.6c-0.2-0.9-1-1.6-1.9-1.6
		c-1,0-1.8,0.9-1.8,1.9c0,0.1,0,0.2,0,0.3c0.5,1.9,1.2,3.8-0.1,5.7S84,74.8,84,74.8z"/>
	<path class="st20" d="M87.7,64.4c0.8-0.5,1.9-2.3,1-2.6c-0.8-0.4-0.2-1.7-1-1.7c-0.8,0-1.3,1.5-0.8,2.3
		C87,62.5,86.9,64.9,87.7,64.4z"/>
	<path class="st20" d="M88,60.2c0,0,1.3-1.3,0-1.6c-1.3-0.3-0.9,1.4-0.8,1.6C87.2,60.4,88,60.2,88,60.2z"/>
	<path class="st21" d="M82.7,64.8c0.6-0.1,1-0.7,1-1.4c0,0-0.8-1.7-1.5-0.9C81.5,63.2,81.7,65,82.7,64.8z"/>
	<path class="st21" d="M84,74.8L84,74.8c0,0,2-4.2,1-7.2c-0.5-1.8-0.4-3.8,0.3-5.5c-1,0-1.8,0.9-1.8,1.9c0,0.1,0,0.2,0,0.3
		c0.5,1.9,1.2,3.8-0.1,5.7S84,74.8,84,74.8z"/>
	<polygon class="st22" points="87.5,74.8 81.5,74.8 81.8,75.8 87.3,75.8 	"/>
	<polygon class="st23" points="86.2,81.5 86.7,76.9 86.9,75.8 82.3,75.8 82.8,81.5 	"/>
	<polygon class="st22" points="87.8,67.3 89.1,66.3 87.8,67.1 	"/>
	<polygon class="st22" points="86.3,60.5 87,61.2 87.1,61 	"/>
	<polygon class="st22" points="88,61.1 88.9,60.9 88.1,60.9 	"/>
	<polygon class="st22" points="87.2,57.7 87.4,58.8 87.5,58.8 	"/>
	<polygon class="st22" points="88.2,58.8 88.3,58.9 88.8,58.3 	"/>
	<polygon class="st22" points="87.8,58.6 87.9,58.7 87.8,58 	"/>
	<polygon class="st22" points="87.4,69.5 87.9,71 87.7,69.5 	"/>
	<polygon class="st22" points="82.4,63.4 81.2,62.5 82.3,63.5 	"/>
	<polygon class="st22" points="83.3,71 81.6,71.4 83.3,71.4 	"/>
	<path class="st24" d="M86.7,76.9l0.1-1.1h-4.6l0.6,5.7H84C83.8,79.4,84.9,77.5,86.7,76.9z"/>
	<polygon class="st25" points="84.8,72.6 84.8,73.1 84.7,74.6 84.6,75 84.6,75.6 84.5,76 84.3,79.2 84.1,81.3 84.1,81.5 75.5,81.5 
		75.5,81 75.1,75 75,73.1 75,72.9 75,72.8 75,71.9 79.5,72.2 79.8,72.3 80.5,72.3 83,72.5 83.1,72.5 84.7,72.6 	"/>
	<path class="st26" d="M83.7,70l1.5-7.8c0,0-2.6,5.9-2.6,8.4C82.5,73.1,83.7,70,83.7,70z"/>
	<path class="st27" d="M83,69.6c0,0,1.5-10.9,0.4-14.2c0,0-2.1,10.9-1.9,14.6C81.8,73.8,83,69.6,83,69.6z"/>
	<path class="st28" d="M77.4,70.6c-0.3-1.9-2.4-7.1-2.4-7.1c-0.1,2.7,1,7.1,1,7.1S77.7,72.5,77.4,70.6z"/>
	<path class="st29" d="M78.2,70.5c-0.2-2.2-2.4-10.6-2.4-10.6c-0.3,2.2,1,10.6,1,10.6S78.4,72.7,78.2,70.5z"/>
	<path class="st30" d="M78.9,70.5c-0.1-1-1.9-15.8-1.9-15.8C76.2,57,77.4,70,77.4,70C77.5,70.8,79,71.5,78.9,70.5z"/>
	<path class="st31" d="M79.5,70c0-1.2-1.4-18.9-1.4-18.9c-0.2,1.1-0.7,11.7-0.7,11.7l0.7,7.6C78.2,70.5,79.5,71.3,79.5,70z"/>
	<path class="st32" d="M82,54.4c0,0-2.3,14.1-2.2,16.3s2.4,3.1,2.2-6.9C82,63.8,82.2,56.2,82,54.4z"/>
	<path class="st33" d="M81.5,62.3c-0.1-2-0.3-4-0.5-6c0,0-1.6,13.6-1.5,14.8C79.7,72.1,81.2,68.9,81.5,62.3z"/>
	<path class="st34" d="M80.5,65.7c0.4-4.9-1.3-12.3-1.3-12.3c-0.5,1.1-0.7,7.6-0.7,7.6s0.6,10.6,1,11.3S80.2,70.5,80.5,65.7z"/>
	<path class="st35" d="M84.8,72.7l0,0.5l-0.1,1.5V75l0,0.6l0,0.4c-0.8,0.2-1.5,0.6-2.1,1.2c-1.2,1.2-2.2,2.6-2.8,4.3h-4.2V81l-0.3-6
		l-0.1-1.9v-0.3v-0.1l5.5-0.2l2.5-0.1h0.1L84.8,72.7L84.8,72.7z"/>
	<polygon class="st36" points="74.9,70 74.2,73.1 85.6,73.1 84.8,70 	"/>
	<rect x="149.3" y="65" class="st0" width="26.3" height="1.5"/>
	<rect x="149.3" y="61.7" class="st0" width="15.8" height="1.5"/>
	<rect x="149.3" y="68.4" class="st0" width="10.8" height="1.5"/>
	
		<linearGradient id="SVGID_1_" gradientUnits="userSpaceOnUse" x1="142.7401" y1="110.3931" x2="151.5163" y2="110.3931" gradientTransform="matrix(1 0 0 -1 -15.35 187.4512)">
		<stop  offset="0" style="stop-color:#FF9F55"/>
		<stop  offset="1" style="stop-color:#FFD255"/>
	</linearGradient>
	<path class="st37" d="M135.6,74.2c-0.5-0.3-1.1-0.4-1.7-0.2l0.2-1.4h-6.7l1.1,8.8h4.5l0.1-0.8l0.1-0.8c0.7,0,1.3-0.3,1.8-0.8
		c0.8-0.9,1.2-2.2,1.1-3.4C136.2,75.1,136,74.6,135.6,74.2z M134.5,78.4c-0.3,0.3-0.7,0.6-1.2,0.6l0.5-4c0.4-0.1,1-0.3,1.4-0.1
		c0.1,0,0.2,0.2,0.2,0.8C135.5,76.7,135.1,77.7,134.5,78.4z"/>
	<g>
		
			<linearGradient id="SVGID_2_" gradientUnits="userSpaceOnUse" x1="142.7059" y1="105.1595" x2="146.3975" y2="111.9312" gradientTransform="matrix(1 0 0 -1 -15.35 187.4512)">
			<stop  offset="0" style="stop-color:#FFA155"/>
			<stop  offset="1" style="stop-color:#FFA155"/>
		</linearGradient>
		<path class="st38" d="M133,81.5h-4.6l-1.1-8.8h2.5C129.9,72.7,129,80.6,133,81.5z"/>
	</g>
	
		<linearGradient id="SVGID_3_" gradientUnits="userSpaceOnUse" x1="143.9018" y1="114.7571" x2="146.313" y2="119.1677" gradientTransform="matrix(1 0 0 -1 -15.35 187.4512)">
		<stop  offset="1.000000e-02" style="stop-color:#E6E6E6"/>
		<stop  offset="1" style="stop-color:#FFDCC2"/>
	</linearGradient>
	<path class="st39" d="M130.5,66.6c-0.7,0.2-1.1,1.1-0.9,1.9c0,0,0,0.1,0,0.1c0.5,1.4,1.4,2.3,0.6,4.1c0.9-0.6,1.2-1.8,0.8-2.9
		C130.3,68,129.8,67.5,130.5,66.6z"/>
	
		<linearGradient id="SVGID_4_" gradientUnits="userSpaceOnUse" x1="146.4245" y1="114.7767" x2="148.1917" y2="118.0115" gradientTransform="matrix(1 0 0 -1 -15.35 187.4512)">
		<stop  offset="1.000000e-02" style="stop-color:#E6E6E6"/>
		<stop  offset="1" style="stop-color:#FFDCC2"/>
	</linearGradient>
	<path class="st40" d="M132.5,68.2c-0.5,0.2-0.8,0.8-0.7,1.4c0,0,0,0.1,0,0.1c0.4,1.1,1,1.7,0.4,3c0.7-0.4,0.9-1.3,0.6-2.1
		C132.3,69.2,132,68.8,132.5,68.2z"/>
	
		<linearGradient id="SVGID_5_" gradientUnits="userSpaceOnUse" x1="142.6751" y1="114.7737" x2="144.4423" y2="118.0086" gradientTransform="matrix(1 0 0 -1 -15.35 187.4512)">
		<stop  offset="1.000000e-02" style="stop-color:#E6E6E6"/>
		<stop  offset="1" style="stop-color:#FFDCC2"/>
	</linearGradient>
	<path class="st41" d="M128.7,68.2c-0.5,0.2-0.9,0.8-0.7,1.4c0,0,0,0.1,0,0.1c0.4,1.1,1,1.7,0.4,3c0.7-0.4,0.9-1.3,0.6-2.1
		C128.6,69.2,128.3,68.8,128.7,68.2z"/>
	<path class="st1" d="M132.8,55.3h9.9c1.3,0,2.4,1.2,2.4,2.6v11.7c0,1.4-1.1,2.6-2.4,2.6h-9.9c-1.3,0-2.4-1.2-2.4-2.6V57.8
		C130.4,56.4,131.5,55.3,132.8,55.3z"/>
	<rect x="132.6" y="59.7" class="st15" width="10.2" height="8"/>
	<polygon class="st16" points="132.6,67.7 137.7,63.2 142.8,67.7 	"/>
	<polygon class="st17" points="142.8,59.7 137.7,64.7 132.6,59.7 	"/>
</g>
</svg>
